# xmcd
#
# Track frame offsets: 
#        182
#        14837
#        27332
#        37317
#        50755
#        69452
#        82585
#        95027
#        105065
#        117930
#        129252
#        141065
#        154635
#        170082
#        181307
#        197952
#
# Disc length: 2775 seconds
#
# Revision: 1
# Processed by: cddbd v1.5.2PL0 Copyright (c) Steve Scherf et al.
# Submitted via: ExactAudioCopy v0.95b4
#
DISCID=d90ad510
DTITLE=Various Artist - Country 'N' Irish
DYEAR=1988
DGENRE=Country
TTITLE0=Frankie McBride - 40 Shades Of Green
TTITLE1=Big Tom and the Mainliners - Gentle Mother
TTITLE2=Brendan Quinn - My Wild Irish Rose
TTITLE3=Philomena Quinn - Two Little Orphans
TTITLE4=Brian Coll - I'll Take You Home Kathleen
TTITLE5=Pat McGeegan - A Rose Is A Rose
TTITLE6=Helen McCaffrey - I'll Get Over You
TTITLE7=Teresa Duffy - Wonderin' What To Do - Teresa Duffy
TTITLE8=Brendan Quinn - A Mother's Love's A Blessing
TTITLE9=Frankie McBride - How Are Things In Gloccamorra
TTITLE10=Brian Coll - The Rose Of Tralee
TTITLE11=Philomena Quinn - She's Got You
TTITLE12=Helen McCaffrey - That Silver Haired Daddy Of Mine
TTITLE13=Big Tom and the Mainliners - The Sunset Years Of Our Life
TTITLE14=Tony Morrelli - Nobody's Child
TTITLE15=Anna McGoldrick - The Irish Was To Love
EXTD=YEAR: 1988
EXTT0=
EXTT1=
EXTT2=
EXTT3=
EXTT4=
EXTT5=
EXTT6=
EXTT7=
EXTT8=
EXTT9=
EXTT10=
EXTT11=
EXTT12=
EXTT13=
EXTT14=
EXTT15=
PLAYORDER=
